<svg width="156" height="175" viewBox="0 0 156 175" fill="none" xmlns="http://www.w3.org/2000/svg">
<path d="M18.1398 129.615C25.1693 141.568 46.2192 159.714 74.1836 136.679M74.1836 136.679C109.139 107.886 74.5962 88.0395 53.7608 101.459C32.9255 114.879 50.1445 140.012 74.1836 136.679ZM74.1836 136.679C83.9471 136.803 105.943 134.43 115.817 123.944C128.16 110.837 121.864 80.8796 112.351 64.3343" stroke="#C4C4C4" stroke-opacity="0.7" stroke-width="2.4818" stroke-dasharray="7.45 7.45"/>
<path d="M96.1758 43.016C96.5254 37.4606 103.16 34.7922 107.259 38.5585L120.176 50.4275C123.759 53.7204 122.683 59.6249 118.168 61.4409L104.148 67.0793C99.6332 68.8954 94.7681 65.3807 95.0738 60.5235L96.1758 43.016Z" fill="#C4C4C4" fill-opacity="0.7"/>
</svg>
