<svg width="15" height="15" viewBox="0 0 15 15" fill="none" xmlns="http://www.w3.org/2000/svg">
<path d="M5.08751 11.7817C4.32918 11.7817 3.71562 12.4021 3.71562 13.1605C3.71562 13.9188 4.32918 14.5392 5.08751 14.5392C5.84583 14.5392 6.46628 13.9188 6.46628 13.1605C6.46628 12.4021 5.84583 11.7817 5.08751 11.7817ZM0.951172 0.751465V2.13024H2.32995L4.81175 7.36271L3.88107 9.05171C3.77077 9.24474 3.70873 9.47224 3.70873 9.71352C3.70873 10.4718 4.32918 11.0923 5.08751 11.0923H13.3602V9.71352H5.37705C5.28053 9.71352 5.2047 9.63769 5.2047 9.54117L5.22538 9.45845L5.84583 8.33474H10.9818C11.4988 8.33474 11.9538 8.05209 12.1882 7.62467L14.6562 3.15054C14.7114 3.05402 14.7389 2.93683 14.7389 2.81963C14.7389 2.44047 14.4287 2.13024 14.0496 2.13024H3.8535L3.20547 0.751465H0.951172ZM11.9814 11.7817C11.2231 11.7817 10.6095 12.4021 10.6095 13.1605C10.6095 13.9188 11.2231 14.5392 11.9814 14.5392C12.7397 14.5392 13.3602 13.9188 13.3602 13.1605C13.3602 12.4021 12.7397 11.7817 11.9814 11.7817Z" fill="#909090"/>
</svg>
