<svg width="55" height="60" viewBox="0 0 55 60" fill="none" xmlns="http://www.w3.org/2000/svg">
<path d="M43.496 17.7022C43.496 14.9912 41.4736 12.7731 39.0018 12.7731H32.2604V17.7022H39.0018V24.2334L31.1818 34.9544H23.2719V22.6314H14.2834C9.31728 22.6314 5.29492 27.043 5.29492 32.4898V39.8835H9.78917C9.78917 43.9748 12.8003 47.2773 16.5305 47.2773C20.2608 47.2773 23.2719 43.9748 23.2719 39.8835H33.339L43.496 25.9586V17.7022ZM16.5305 42.3481C15.2946 42.3481 14.2834 41.2391 14.2834 39.8835H18.7777C18.7777 41.2391 17.7665 42.3481 16.5305 42.3481Z" fill="#FF8E0A"/>
<path d="M12.0361 15.2377H23.2718V20.1668H12.0361V15.2377ZM43.4959 32.4898C39.7657 32.4898 36.7545 35.7923 36.7545 39.8836C36.7545 43.9748 39.7657 47.2773 43.4959 47.2773C47.2261 47.2773 50.2373 43.9748 50.2373 39.8836C50.2373 35.7923 47.2261 32.4898 43.4959 32.4898ZM43.4959 42.3482C42.26 42.3482 41.2488 41.2391 41.2488 39.8836C41.2488 38.528 42.26 37.419 43.4959 37.419C44.7318 37.419 45.743 38.528 45.743 39.8836C45.743 41.2391 44.7318 42.3482 43.4959 42.3482Z" fill="#FF8E0A"/>
</svg>
