<svg width="64" height="65" viewBox="0 0 64 65" fill="none" xmlns="http://www.w3.org/2000/svg">
<g filter="url(#filter0_d_1484_226)">
<path d="M31.8946 52.7919C46.2239 52.7919 57.8401 41.4736 57.8401 27.5117C57.8401 13.5499 46.2239 2.23157 31.8946 2.23157C17.5654 2.23157 5.94922 13.5499 5.94922 27.5117C5.94922 41.4736 17.5654 52.7919 31.8946 52.7919Z" fill="#3E4347"/>
<path d="M9.66793 15.7144L7.33284 13.4392C5.51666 11.6695 5.51666 8.80446 7.33284 7.11912L10.9652 3.57989C12.7814 1.81028 15.7219 1.81028 17.4516 3.57989L19.7866 5.85511L17.1056 8.46739L14.7705 6.19218C14.5111 5.93937 13.9922 5.93937 13.6462 6.19218L10.0139 9.7314C9.75441 9.9842 9.75441 10.4898 10.0139 10.8269L12.349 13.1021L9.66793 15.7144ZM54.1211 39.3092L56.4562 41.5844C58.2724 43.354 58.2724 46.2191 56.4562 47.9044L52.8238 51.4437C51.0076 53.2133 48.0672 53.2133 46.3375 51.4437L44.0024 49.1684L46.6834 46.5562L49.0185 48.8314C49.2779 49.0842 49.7968 49.0842 50.1428 48.8314L53.7751 45.2921C54.0346 45.0393 54.0346 44.5337 53.7751 44.1967L51.4401 41.9215L54.1211 39.3092Z" fill="#3E4347"/>
<path d="M31.8947 47.2304C43.0715 47.2304 52.1321 38.4021 52.1321 27.5119C52.1321 16.6216 43.0715 7.79333 31.8947 7.79333C20.7178 7.79333 11.6572 16.6216 11.6572 27.5119C11.6572 38.4021 20.7178 47.2304 31.8947 47.2304Z" fill="#F2B200"/>
<path d="M38.4676 10.1528C34.1434 7.96183 27.3111 12.1752 28.0895 15.7144C28.8678 19.2536 37.7757 21.7817 40.1973 26.7534C42.6189 31.7252 43.7432 33.3263 48.0674 29.9556C52.3052 26.5006 54.2943 18.3267 38.4676 10.1528Z" fill="#B47D56"/>
<path d="M37.7758 12.1752C40.7163 12.1752 35.9596 13.7762 33.1921 16.1357C31.8084 17.3155 32.4138 12.1752 37.7758 12.1752ZM44.0892 16.3043C47.0297 16.3043 42.273 17.9053 39.419 20.2648C38.1218 21.3603 38.7271 16.3043 44.0892 16.3043ZM47.981 22.6243C50.9215 22.6243 46.1648 24.2254 43.3108 26.5849C42.0136 27.6803 42.7054 22.6243 47.981 22.6243Z" fill="#89664C"/>
<path d="M13.4732 32.5678C11.83 28.523 17.2786 23.5512 20.8244 24.8152C24.4568 26.0792 25.7541 34.0004 30.5107 36.9497C35.2674 39.8148 36.8241 41.0788 32.6728 44.1124C28.4351 47.146 19.6137 47.3146 13.4732 32.5678Z" fill="#B47D56"/>
<path d="M15.8086 33.6633C15.3762 36.107 17.7113 32.3993 20.6517 30.4611C22.0355 29.5342 16.587 29.1971 15.8086 33.6633ZM18.7491 38.8036C18.3166 41.2473 20.6517 37.5396 23.5922 35.6014C24.976 34.6745 19.5274 34.3374 18.7491 38.8036ZM23.9382 42.5956C23.5057 45.0393 25.8408 41.3316 28.7813 39.3934C30.1651 38.4665 24.803 38.0452 23.9382 42.5956Z" fill="#89664C"/>
<path d="M26.3602 11.5009C24.4575 9.73132 24.4575 9.73132 18.9225 15.3772C15.8956 18.4951 14.3388 21.7815 15.3766 22.7085C17.2793 24.4781 17.2793 24.4781 22.7278 18.8322C25.8413 15.7986 27.398 12.5121 26.3602 11.5009ZM48.7598 34.4216C47.203 32.3992 47.203 32.3992 40.8896 36.7811C37.3438 39.2248 35.2681 42.0899 36.0465 43.1854C37.6032 45.2078 37.6032 45.2078 43.9166 40.8259C47.4625 38.3822 49.6246 35.5171 48.7598 34.4216ZM37.6032 28.5229C38.7275 25.9949 38.7275 25.9949 31.1169 22.5399C26.8791 20.6018 22.9873 20.1805 22.3819 21.5287C21.2576 24.0567 21.2576 24.0567 28.8683 27.5117C33.0195 29.4498 36.9113 29.8712 37.6032 28.5229Z" fill="#699635"/>
<path d="M41.8403 32.3992C42.0133 30.5453 40.4566 31.4723 37.6026 31.388C34.7486 31.2195 35.5269 33.4104 35.6999 35.18C35.7864 36.9496 36.9107 35.5171 41.0619 35.6014C42.6187 35.6856 41.5809 34.2531 41.8403 32.3992Z" fill="#ED4C5C"/>
<path d="M30.0788 29.2814C27.9167 28.523 28.6086 29.9556 27.4843 31.978C26.36 34.0004 29.3005 34.0846 31.4626 34.5903C33.6247 35.0959 32.2409 33.8318 33.7112 30.8825C34.3166 29.787 32.2409 30.0398 30.0788 29.2814Z" fill="#FFCE31"/>
<path d="M25.4079 16.4728C23.2458 15.7144 23.9377 17.147 22.8134 19.1694C21.6891 21.1918 24.6296 21.2761 26.7917 21.7817C28.9538 22.2873 27.57 21.0233 29.0403 18.0739C29.6457 16.9784 27.57 17.2312 25.4079 16.4728Z" fill="#ED4C5C"/>
<path d="M16.3278 22.6243C14.1657 21.8659 14.8576 23.2984 13.7333 25.3209C12.609 27.3433 15.5495 27.4275 17.7116 27.9331C19.8737 28.4387 18.49 27.1747 19.9602 24.2254C20.5656 23.0456 18.49 23.2984 16.3278 22.6243Z" fill="#FFCE31"/>
</g>
<defs>
<filter id="filter0_d_1484_226" x="-1.45722" y="0.546265" width="66.7045" height="65.2849" filterUnits="userSpaceOnUse" color-interpolation-filters="sRGB">
<feFlood flood-opacity="0" result="BackgroundImageFix"/>
<feColorMatrix in="SourceAlpha" type="matrix" values="0 0 0 0 0 0 0 0 0 0 0 0 0 0 0 0 0 0 127 0" result="hardAlpha"/>
<feOffset dy="5.67695"/>
<feGaussianBlur stdDeviation="2.83847"/>
<feComposite in2="hardAlpha" operator="out"/>
<feColorMatrix type="matrix" values="0 0 0 0 0 0 0 0 0 0 0 0 0 0 0 0 0 0 0.25 0"/>
<feBlend mode="normal" in2="BackgroundImageFix" result="effect1_dropShadow_1484_226"/>
<feBlend mode="normal" in="SourceGraphic" in2="effect1_dropShadow_1484_226" result="shape"/>
</filter>
</defs>
</svg>
